#N canvas 951 449 450 300 12;
#X obj 90 198 dac~;
#X obj 72 115 sample sounds/sound1.wav 2000;
#X obj 131 145 sample sounds/sound2.wav 1500;
#X floatatom 59 78 5 0 0 0 TEMPO1 - - 0;
#X floatatom 151 78 5 0 0 0 TEMPO2 - - 0;
#X connect 1 0 0 0;
#X connect 2 0 0 1;
#X connect 3 0 1 0;
#X connect 4 0 2 0;
