#N canvas 655 325 743 460 12;
#X obj 90 219 soundfiler;
#X obj 87 25 loadbang;
#X obj 388 206 outlet~;
#X obj 1 262 print OPENING;
#X obj 103 262 print LOADED;
#X obj 428 68 metro \$2;
#X obj 360 279 table \$0-CHANNEL1;
#X obj 313 131 tabplay~ \$0-CHANNEL1;
#X obj 473 131 tabplay~ \$0-CHANNEL2;
#X obj 392 301 table \$0-CHANNEL2;
#X obj 136 75 symbol \$1;
#X obj 87 111 pack \$0 s;
#X msg 87 168 read -resize \$2 \$1-CHANNEL1 \$1-CHANNEL2;
#X obj 485 28 inlet;
#X connect 0 0 4 0;
#X connect 1 0 5 0;
#X connect 1 0 10 0;
#X connect 1 0 11 0;
#X connect 5 0 7 0;
#X connect 5 0 8 0;
#X connect 7 0 2 0;
#X connect 8 0 2 0;
#X connect 10 0 11 1;
#X connect 11 0 12 0;
#X connect 12 0 0 0;
#X connect 12 0 3 0;
#X connect 13 0 5 1;
